<?xml version="1.0" encoding="UTF-8"?><svg xmlns="http://www.w3.org/2000/svg" viewBox="0 0 128 128" width="128" height="128" role="img" aria-label="White club logo"><?xml version="1.0" encoding="UTF-8"?><?xml version="1.0" encoding="UTF-8"?><?xml version="1.0" encoding="UTF-8"?><?xml version="1.0" encoding="UTF-8"?><?xml version="1.0" encoding="UTF-8"?><?xml version="1.0" encoding="UTF-8"?><?xml version="1.0" encoding="UTF-8"?><?xml version="1.0" encoding="UTF-8"?>

<svg xmlns="http://www.w3.org/2000/svg" viewBox="0 0 128 128" width="128" height="128">

  <g fill="#FFFFFF">  <g fill="#ffffff">

    <!-- Spade shape -->

    <path d="M 64 20     <!-- Top circle --><svg width="128" height="128" viewBox="0 0 128 128" xmlns="http://www.w3.org/2000/svg">

             C 64 20, 40 45, 40 65 

             C 40 80, 50 90, 64 90     <circle cx="64" cy="36" r="20"/>

             C 78 90, 88 80, 88 65 

             C 88 45, 64 20, 64 20 Z"/>    <!-- Left circle -->  <svg width="128" height="128" viewBox="0 0 128 128" xmlns="http://www.w3.org/2000/svg">

    <!-- Stem -->

    <path d="M 64 85     <circle cx="44" cy="68" r="20"/>

             C 58 92, 54 100, 54 108 

             L 74 108     <!-- Right circle -->  <!-- Light/White Brain Icon - Visible on Dark Sidebar -->

             C 74 100, 70 92, 64 85 Z"/>

  </g>    <circle cx="84" cy="68" r="20"/>

</svg>

    <!-- Stem -->  <g transform="translate(64, 64)">  <svg width="128" height="128" viewBox="0 0 128 128" xmlns="http://www.w3.org/2000/svg">

    <path d="M64 68 C58 80, 54 92, 64 100 C74 92, 70 80, 64 68 Z"/>

  </g>    

</svg>

    <!-- Left Hemisphere -->  <!-- White Background Circle -->

    <path d="M -8,-48 

             Q -30,-48 -40,-34  <circle cx="64" cy="64" r="60" fill="#FFFFFF"/>  <defs><svg width="128" height="128" viewBox="0 0 128 128" xmlns="http://www.w3.org/2000/svg">

             Q -46,-22 -46,-8

             Q -46,8 -40,22  

             Q -30,36 -16,44

             Q -8,48 -4,48  <!-- Black Brain Shape -->    <linearGradient id="bgGrad" x1="0%" y1="0%" x2="100%" y2="100%">

             L -4,-48 Z"

          fill="#CCCCCC"   <g transform="translate(64, 64)">

          stroke="#FFFFFF" 

          stroke-width="2"/>    <!-- Left Hemisphere -->      <stop offset="0%" style="stop-color:#1a1a2e;stop-opacity:1" />  <defs><svg width="128" height="128" viewBox="0 0 128 128" xmlns="http://www.w3.org/2000/svg">

    

    <!-- Right Hemisphere -->    <path d="M -8,-40 

    <path d="M 8,-48 

             Q 30,-48 40,-34             Q -26,-40 -34,-28      <stop offset="100%" style="stop-color:#0f3460;stop-opacity:1" />

             Q 46,-22 46,-8

             Q 46,8 40,22             Q -38,-18 -38,-6

             Q 30,36 16,44

             Q 8,48 4,48             Q -38,6 -34,18    </linearGradient>    <linearGradient id="bgGrad" x1="0%" y1="0%" x2="100%" y2="100%">

             L 4,-48 Z"

          fill="#CCCCCC"              Q -26,30 -14,36

          stroke="#FFFFFF" 

          stroke-width="2"/>             Q -8,38 -4,38    <linearGradient id="mainGrad" x1="0%" y1="0%" x2="100%" y2="100%">

    

    <!-- Brain Wrinkles - Left Side -->             L -4,-40 Z"

    <g stroke="#FFFFFF" stroke-width="3" fill="none" stroke-linecap="round">

      <path d="M -34,-36 Q -26,-36 -20,-32"/>          fill="#000000"/>      <stop offset="0%" style="stop-color:#667eea;stop-opacity:1" />      <stop offset="0%" style="stop-color:#1a1a2e;stop-opacity:1" />  <defs><svg width="128" height="128" viewBox="0 0 128 128" xmlns="http://www.w3.org/2000/svg">

      <path d="M -38,-24 Q -30,-24 -24,-20"/>

      <path d="M -40,-12 Q -32,-12 -26,-8"/>    

      <path d="M -40,0 Q -32,0 -26,4"/>

      <path d="M -38,12 Q -30,12 -24,16"/>    <!-- Right Hemisphere -->      <stop offset="50%" style="stop-color:#764ba2;stop-opacity:1" />

      <path d="M -36,24 Q -28,24 -22,28"/>

      <path d="M -30,36 Q -22,36 -16,40"/>    <path d="M 8,-40 

    </g>

                 Q 26,-40 34,-28      <stop offset="100%" style="stop-color:#f093fb;stop-opacity:1" />      <stop offset="100%" style="stop-color:#0f3460;stop-opacity:1" />

    <!-- Brain Wrinkles - Right Side -->

    <g stroke="#FFFFFF" stroke-width="3" fill="none" stroke-linecap="round">             Q 38,-18 38,-6

      <path d="M 34,-36 Q 26,-36 20,-32"/>

      <path d="M 38,-24 Q 30,-24 24,-20"/>             Q 38,6 34,18    </linearGradient>

      <path d="M 40,-12 Q 32,-12 26,-8"/>

      <path d="M 40,0 Q 32,0 26,4"/>             Q 26,30 14,36

      <path d="M 38,12 Q 30,12 24,16"/>

      <path d="M 36,24 Q 28,24 22,28"/>             Q 8,38 4,38    <linearGradient id="accentGrad" x1="0%" y1="0%" x2="100%" y2="100%">    </linearGradient>    <!-- Vibrant Brain Gradient -->

      <path d="M 30,36 Q 22,36 16,40"/>

    </g>             L 4,-40 Z"

    

    <!-- Central Division Line -->          fill="#000000"/>      <stop offset="0%" style="stop-color:#00d4ff;stop-opacity:1" />

    <line x1="0" y1="-44" x2="0" y2="44" stroke="#FFFFFF" stroke-width="4"/>

        

    <!-- Neural Nodes -->

    <circle cx="-26" cy="-24" r="4" fill="#FFFFFF"/>    <!-- White Brain Wrinkles - Left -->      <stop offset="100%" style="stop-color:#0099ff;stop-opacity:1" />    <linearGradient id="mainGrad" x1="0%" y1="0%" x2="100%" y2="100%">

    <circle cx="26" cy="-24" r="4" fill="#FFFFFF"/>

    <circle cx="-28" cy="0" r="4" fill="#FFFFFF"/>    <g stroke="#FFFFFF" stroke-width="2.5" fill="none" stroke-linecap="round">

    <circle cx="28" cy="0" r="4" fill="#FFFFFF"/>

    <circle cx="-26" cy="24" r="4" fill="#FFFFFF"/>      <path d="M -28,-30 Q -22,-30 -18,-26"/>    </linearGradient>

    <circle cx="26" cy="24" r="4" fill="#FFFFFF"/>

          <path d="M -32,-18 Q -26,-18 -22,-14"/>

  </g>

        <path d="M -32,-6 Q -26,-6 -22,-2"/>  </defs>      <stop offset="0%" style="stop-color:#667eea;stop-opacity:1" />    <linearGradient id="brainGrad" x1="0%" y1="0%" x2="100%" y2="100%">  <defs><svg width="128" height="128" viewBox="0 0 128 128" xmlns="http://www.w3.org/2000/svg"><svg width="128" height="128" viewBox="0 0 128 128" xmlns="http://www.w3.org/2000/svg">

</svg>

      <path d="M -32,6 Q -26,6 -22,10"/>

      <path d="M -30,18 Q -24,18 -20,22"/>  

    </g>

      <rect width="128" height="128" rx="24" fill="url(#bgGrad)"/>      <stop offset="50%" style="stop-color:#764ba2;stop-opacity:1" />

    <!-- White Brain Wrinkles - Right -->

    <g stroke="#FFFFFF" stroke-width="2.5" fill="none" stroke-linecap="round">  

      <path d="M 28,-30 Q 22,-30 18,-26"/>

      <path d="M 32,-18 Q 26,-18 22,-14"/>  <circle cx="64" cy="64" r="54" fill="none" stroke="url(#mainGrad)" stroke-width="2" opacity="0.3"/>      <stop offset="100%" style="stop-color:#f093fb;stop-opacity:1" />      <stop offset="0%" style="stop-color:#7C3AED;stop-opacity:1" />

      <path d="M 32,-6 Q 26,-6 22,-2"/>

      <path d="M 32,6 Q 26,6 22,10"/>  

      <path d="M 30,18 Q 24,18 20,22"/>

    </g>  <g stroke="#667eea" stroke-width="3" fill="none" opacity="0.4">    </linearGradient>

    

    <!-- Central Division -->    <circle cx="28" cy="28" r="6"/>

    <line x1="0" y1="-36" x2="0" y2="34" stroke="#FFFFFF" stroke-width="3"/>

  </g>    <circle cx="100" cy="28" r="6"/>    <linearGradient id="accentGrad" x1="0%" y1="0%" x2="100%" y2="100%">      <stop offset="50%" style="stop-color:#A855F7;stop-opacity:1" />    <!-- Background Gradient -->

  

</svg>    <circle cx="28" cy="100" r="6"/>


    <circle cx="100" cy="100" r="6"/>      <stop offset="0%" style="stop-color:#00d4ff;stop-opacity:1" />

    <line x1="34" y1="28" x2="94" y2="28"/>

    <line x1="28" y1="34" x2="28" y2="94"/>      <stop offset="100%" style="stop-color:#0099ff;stop-opacity:1" />      <stop offset="100%" style="stop-color:#EC4899;stop-opacity:1" />

    <line x1="100" y1="34" x2="100" y2="94"/>

    <line x1="34" y1="100" x2="94" y2="100"/>    </linearGradient>

  </g>

      <filter id="glow">    </linearGradient>    <linearGradient id="bgGrad" x1="0%" y1="0%" x2="100%" y2="100%">  <defs>  <defs>

  <polygon points="64,24 88,37 88,63 64,76 40,63 40,37" fill="url(#mainGrad)" stroke="url(#accentGrad)" stroke-width="3"/>

        <feGaussianBlur stdDeviation="3" result="coloredBlur"/>

  <g stroke="#00d4ff" stroke-width="2" fill="none">

    <line x1="52" y1="42" x2="76" y2="42"/>      <feMerge>  </defs>

    <line x1="52" y1="50" x2="76" y2="50"/>

    <line x1="52" y1="58" x2="76" y2="58"/>        <feMergeNode in="coloredBlur"/>

    <line x1="58" y1="38" x2="58" y2="62"/>

    <line x1="64" y1="38" x2="64" y2="62"/>        <feMergeNode in="SourceGraphic"/>        <stop offset="0%" style="stop-color:#1e1e1e;stop-opacity:1" />

    <line x1="70" y1="38" x2="70" y2="62"/>

  </g>      </feMerge>

  

  <circle cx="58" cy="42" r="2.5" fill="#00d4ff"/>    </filter>  <!-- Solid White Background Circle for visibility -->

  <circle cx="64" cy="50" r="2.5" fill="#00ffff"/>

  <circle cx="70" cy="58" r="2.5" fill="#00d4ff"/>  </defs>

  

  <path d="M 64,82 L 52,90 Q 52,102 64,110 Q 76,102 76,90 Z" fill="url(#mainGrad)" stroke="#00d4ff" stroke-width="2.5"/>    <circle cx="64" cy="64" r="58" fill="#FFFFFF"/>      <stop offset="100%" style="stop-color:#2d2d30;stop-opacity:1" />    <linearGradient id="ghostGrad" x1="0%" y1="0%" x2="0%" y2="100%">    <linearGradient id="bgGrad" x1="0%" y1="0%" x2="100%" y2="100%">

  

  <g transform="translate(64, 96)">  <!-- Solid Background -->

    <rect x="-4" y="2" width="8" height="7" rx="1.5" fill="#00d4ff"/>

    <path d="M -3,2 Q -3,-1 0,-1 Q 3,-1 3,2" stroke="#00d4ff" stroke-width="2" fill="none"/>  <rect width="128" height="128" rx="24" fill="url(#bgGrad)"/>  

  </g>

    

  <g font-family="monospace" font-size="12" font-weight="bold">

    <text x="12" y="68" fill="#667eea">{ }</text>  <!-- Outer Glow Circle -->  <!-- Brain Container Circle -->    </linearGradient>

    <text x="104" y="68" fill="#764ba2">&lt;/&gt;</text>

    <text x="58" y="18" fill="#f093fb">0x</text>  <circle cx="64" cy="64" r="54" fill="none" stroke="url(#mainGrad)" stroke-width="2" opacity="0.3"/>

  </g>

      <circle cx="64" cy="64" r="54" fill="url(#brainGrad)"/>

  <g fill="#667eea" font-family="monospace" font-size="9" opacity="0.6">

    <text x="8" y="14">101</text>  <!-- Blockchain Chain Links -->

    <text x="104" y="14">010</text>

    <text x="8" y="120">110</text>  <g stroke="#667eea" stroke-width="3" fill="none" opacity="0.4">            <stop offset="0%" style="stop-color:#1a1a1a;stop-opacity:1" />      <stop offset="0%" style="stop-color:#1a1a2e;stop-opacity:1" />

    <text x="104" y="120">001</text>

  </g>    <circle cx="28" cy="28" r="6"/>

  

  <circle cx="12" cy="12" r="2" fill="#00d4ff" opacity="0.6"/>    <circle cx="100" cy="28" r="6"/>  <!-- Brain Shape -->

  <circle cx="116" cy="12" r="2" fill="#00d4ff" opacity="0.6"/>

  <circle cx="12" cy="116" r="2" fill="#00d4ff" opacity="0.6"/>    <circle cx="28" cy="100" r="6"/>

  <circle cx="116" cy="116" r="2" fill="#00d4ff" opacity="0.6"/>

</svg>    <circle cx="100" cy="100" r="6"/>  <g transform="translate(64, 64)">    <!-- Brain Gradient -->


    <line x1="34" y1="28" x2="94" y2="28"/>

    <line x1="28" y1="34" x2="28" y2="94"/>    <!-- Left Hemisphere -->

    <line x1="100" y1="34" x2="100" y2="94"/>

    <line x1="34" y1="100" x2="94" y2="100"/>    <path d="M -5,-38     <linearGradient id="brainGrad" x1="0%" y1="0%" x2="100%" y2="100%">      <stop offset="100%" style="stop-color:#000000;stop-opacity:1" />      <stop offset="100%" style="stop-color:#0f3460;stop-opacity:1" />

  </g>

               Q -20,-38 -28,-30

  <!-- Central Hexagon Block -->

  <g filter="url(#glow)">             Q -34,-22 -34,-10      <stop offset="0%" style="stop-color:#667eea;stop-opacity:1" />

    <polygon points="64,24 88,37 88,63 64,76 40,63 40,37" 

             fill="url(#mainGrad)" stroke="url(#accentGrad)" stroke-width="3"/>             Q -34,0 -32,10

  </g>

               Q -28,22 -20,30      <stop offset="50%" style="stop-color:#764ba2;stop-opacity:1" />    </linearGradient>    </linearGradient>

  <!-- Circuit Pattern Inside Hexagon -->

  <g stroke="#00d4ff" stroke-width="2" fill="none">             Q -12,36 -5,36

    <line x1="52" y1="42" x2="76" y2="42"/>

    <line x1="52" y1="50" x2="76" y2="50"/>             L -5,-38 Z"      <stop offset="100%" style="stop-color:#f093fb;stop-opacity:1" />

    <line x1="52" y1="58" x2="76" y2="58"/>

    <line x1="58" y1="38" x2="58" y2="62"/>          fill="#FFFFFF" opacity="0.95"/>

    <line x1="64" y1="38" x2="64" y2="62"/>

    <line x1="70" y1="38" x2="70" y2="62"/>        </linearGradient>  </defs>    <linearGradient id="mainGrad" x1="0%" y1="0%" x2="100%" y2="100%">

  </g>

      <!-- Right Hemisphere -->

  <!-- Circuit Nodes -->

  <circle cx="58" cy="42" r="2.5" fill="#00d4ff"/>    <path d="M 5,-38     

  <circle cx="64" cy="50" r="2.5" fill="#00ffff"/>

  <circle cx="70" cy="58" r="2.5" fill="#00d4ff"/>             Q 20,-38 28,-30

  

  <!-- AI Brain/Neural Network -->             Q 34,-22 34,-10    <!-- Accent Gradient -->        <stop offset="0%" style="stop-color:#667eea;stop-opacity:1" />

  <g stroke="#00d4ff" stroke-width="2.5" fill="none">

    <path d="M 56,48 Q 54,45 56,43 Q 58,41 60,43"/>             Q 34,0 32,10

    <path d="M 68,48 Q 70,45 68,43 Q 66,41 64,43"/>

  </g>             Q 28,22 20,30    <linearGradient id="accentGrad" x1="0%" y1="0%" x2="100%" y2="100%">

  <circle cx="57" cy="45" r="2" fill="#00ffff"/>

  <circle cx="67" cy="45" r="2" fill="#00ffff"/>             Q 12,36 5,36

  <circle cx="64" cy="52" r="2" fill="#00d4ff"/>

               L 5,-38 Z"      <stop offset="0%" style="stop-color:#00d4ff;stop-opacity:1" />  <!-- Ghost Body -->      <stop offset="50%" style="stop-color:#764ba2;stop-opacity:1" />

  <!-- Shield Security Symbol -->

  <path d="M 64,82 L 52,90 Q 52,102 64,110 Q 76,102 76,90 Z"           fill="#FFFFFF" opacity="0.95"/>

        fill="url(#mainGrad)" stroke="#00d4ff" stroke-width="2.5"/>

            <stop offset="100%" style="stop-color:#0099ff;stop-opacity:1" />

  <!-- Lock on Shield -->

  <g transform="translate(64, 96)">    <!-- Brain Wrinkles - Left Side (Purple) -->

    <rect x="-4" y="2" width="8" height="7" rx="1.5" fill="#00d4ff"/>

    <path d="M -3,2 Q -3,-1 0,-1 Q 3,-1 3,2" stroke="#00d4ff" stroke-width="2" fill="none"/>    <g stroke="#7C3AED" stroke-width="3" fill="none" stroke-linecap="round">    </linearGradient>  <path d="M 64 20       <stop offset="100%" style="stop-color:#f093fb;stop-opacity:1" />

  </g>

        <path d="M -24,-28 Q -18,-28 -15,-24"/>

  <!-- Code Symbols -->

  <g fill="#00d4ff" font-family="monospace" font-size="12" font-weight="bold">      <path d="M -26,-18 Q -20,-18 -16,-14"/>  </defs>

    <text x="12" y="68" fill="#667eea">{ }</text>

    <text x="104" y="68" fill="#764ba2">&lt;/&gt;</text>      <path d="M -28,-8 Q -22,-8 -18,-4"/>

    <text x="58" y="18" fill="#f093fb">0x</text>

  </g>      <path d="M -28,2 Q -22,2 -18,6"/>             C 45 20, 30 35, 30 54    </linearGradient>

  

  <!-- Binary Corners -->      <path d="M -28,12 Q -22,12 -18,16"/>

  <g fill="#667eea" font-family="monospace" font-size="9" opacity="0.6">

    <text x="8" y="14">101</text>      <path d="M -26,22 Q -20,22 -16,26"/>  <!-- Background -->

    <text x="104" y="14">010</text>

    <text x="8" y="120">110</text>    </g>

    <text x="104" y="120">001</text>

  </g>      <rect width="128" height="128" rx="24" fill="url(#bgGrad)"/>           L 30 95    <linearGradient id="accentGrad" x1="0%" y1="0%" x2="100%" y2="100%">

  

  <!-- Corner Accents -->    <!-- Brain Wrinkles - Right Side (Pink) -->

  <circle cx="12" cy="12" r="2" fill="#00d4ff" opacity="0.6"/>

  <circle cx="116" cy="12" r="2" fill="#00d4ff" opacity="0.6"/>    <g stroke="#EC4899" stroke-width="3" fill="none" stroke-linecap="round">  

  <circle cx="12" cy="116" r="2" fill="#00d4ff" opacity="0.6"/>

  <circle cx="116" cy="116" r="2" fill="#00d4ff" opacity="0.6"/>      <path d="M 24,-28 Q 18,-28 15,-24"/>

</svg>

      <path d="M 26,-18 Q 20,-18 16,-14"/>  <!-- Brain Outline -->           C 30 95, 35 90, 40 95      <stop offset="0%" style="stop-color:#00d4ff;stop-opacity:1" />

      <path d="M 28,-8 Q 22,-8 18,-4"/>

      <path d="M 28,2 Q 22,2 18,6"/>  <g id="brain" transform="translate(64, 64)">

      <path d="M 28,12 Q 22,12 18,16"/>

      <path d="M 26,22 Q 20,22 16,26"/>    <!-- Left Hemisphere -->           C 45 100, 48 90, 52 95      <stop offset="100%" style="stop-color:#0099ff;stop-opacity:1" />

    </g>

        <path d="M -8,-32 

    <!-- Central Division Line -->

    <line x1="0" y1="-34" x2="0" y2="32"              Q -28,-32 -32,-20           C 56 100, 60 90, 64 95    </linearGradient>

          stroke="#A855F7" 

          stroke-width="3"/>             Q -36,-10 -32,0

    

    <!-- Neural Network Nodes -->             Q -36,10 -32,20           C 68 100, 72 90, 76 95    <filter id="glow">

    <circle cx="-20" cy="-20" r="4" fill="#7C3AED"/>

    <circle cx="20" cy="-20" r="4" fill="#EC4899"/>             Q -28,32 -8,32

    <circle cx="-22" cy="0" r="4" fill="#7C3AED"/>

    <circle cx="22" cy="0" r="4" fill="#EC4899"/>             L -8,-32 Z"           C 80 100, 83 90, 88 95      <feGaussianBlur stdDeviation="3" result="coloredBlur"/>

    <circle cx="-20" cy="20" r="4" fill="#7C3AED"/>

    <circle cx="20" cy="20" r="4" fill="#EC4899"/>          fill="url(#brainGrad)" 

    

    <!-- Center Sparkle -->          stroke="url(#accentGrad)"            C 93 100, 98 95, 98 95      <feMerge>

    <circle cx="0" cy="-8" r="5" fill="#FBBF24"/>

    <circle cx="0" cy="8" r="5" fill="#FBBF24"/>          stroke-width="2"/>

  </g>

                 L 98 54        <feMergeNode in="coloredBlur"/>

  <!-- Bottom Badge -->

  <rect x="44" y="102" width="40" height="20" rx="10" fill="#7C3AED"/>    <!-- Right Hemisphere -->

  <text x="64" y="116" 

        font-family="Arial, sans-serif"     <path d="M 8,-32            C 98 35, 83 20, 64 20 Z"         <feMergeNode in="SourceGraphic"/>

        font-size="12" 

        font-weight="bold"              Q 28,-32 32,-20

        text-anchor="middle" 

        fill="#FFFFFF">AI</text>             Q 36,-10 32,0        fill="url(#ghostGrad)"/>      </feMerge>

</svg>

             Q 36,10 32,20

             Q 28,32 8,32      </filter>

             L 8,-32 Z"

          fill="url(#brainGrad)"   <!-- Left Eye -->  </defs>

          stroke="url(#accentGrad)" 

          stroke-width="2"/>  <ellipse cx="50" cy="55" rx="8" ry="12" fill="#FFFFFF"/>  

    

    <!-- Brain Folds/Wrinkles - Left Side -->    <!-- Solid Background -->

    <g stroke="#00d4ff" stroke-width="2" fill="none" opacity="0.8">

      <path d="M -26,-24 Q -20,-24 -18,-20"/>  <!-- Right Eye -->  <rect width="128" height="128" rx="24" fill="url(#bgGrad)"/>

      <path d="M -30,-12 Q -24,-12 -20,-8"/>

      <path d="M -30,0 Q -24,0 -20,4"/>  <ellipse cx="78" cy="55" rx="8" ry="12" fill="#FFFFFF"/>  

      <path d="M -30,12 Q -24,12 -20,16"/>

      <path d="M -26,24 Q -20,24 -18,20"/>    <!-- Outer Glow Circle -->

    </g>

      <!-- Smile/Mouth -->  <circle cx="64" cy="64" r="54" fill="none" stroke="url(#mainGrad)" stroke-width="2" opacity="0.3"/>

    <!-- Brain Folds/Wrinkles - Right Side -->

    <g stroke="#00d4ff" stroke-width="2" fill="none" opacity="0.8">  <path d="M 48 72   

      <path d="M 26,-24 Q 20,-24 18,-20"/>

      <path d="M 30,-12 Q 24,-12 20,-8"/>           Q 64 80, 80 72"   <!-- Blockchain Chain Links -->

      <path d="M 30,0 Q 24,0 20,4"/>

      <path d="M 30,12 Q 24,12 20,16"/>        stroke="#FFFFFF"   <g stroke="#667eea" stroke-width="3" fill="none" opacity="0.4">

      <path d="M 26,24 Q 20,24 18,20"/>

    </g>        stroke-width="4"     <circle cx="28" cy="28" r="6"/>

    

    <!-- Central Connection -->        fill="none"     <circle cx="100" cy="28" r="6"/>

    <line x1="0" y1="-28" x2="0" y2="28" 

          stroke="url(#accentGrad)"         stroke-linecap="round"/>    <circle cx="28" cy="100" r="6"/>

          stroke-width="3" 

          opacity="0.6"/></svg>    <circle cx="100" cy="100" r="6"/>

    

    <!-- Neural Nodes -->    <line x1="34" y1="28" x2="94" y2="28"/>

    <circle cx="-20" cy="-16" r="3" fill="#00d4ff"/>    <line x1="28" y1="34" x2="28" y2="94"/>

    <circle cx="20" cy="-16" r="3" fill="#00d4ff"/>    <line x1="100" y1="34" x2="100" y2="94"/>

    <circle cx="-20" cy="0" r="3" fill="#00ffff"/>    <line x1="34" y1="100" x2="94" y2="100"/>

    <circle cx="20" cy="0" r="3" fill="#00ffff"/>  </g>

    <circle cx="-20" cy="16" r="3" fill="#00d4ff"/>  

    <circle cx="20" cy="16" r="3" fill="#00d4ff"/>  <!-- Central Hexagon Block -->

      <g filter="url(#glow)">

    <!-- Center Node -->    <polygon points="64,24 88,37 88,63 64,76 40,63 40,37" 

    <circle cx="0" cy="0" r="4" fill="#f093fb"/>             fill="url(#mainGrad)" stroke="url(#accentGrad)" stroke-width="3"/>

  </g>  </g>

    

  <!-- AI Label -->  <!-- Circuit Pattern Inside Hexagon -->

  <text x="64" y="110"   <g stroke="#00d4ff" stroke-width="2" fill="none">

        font-family="Arial, sans-serif"     <line x1="52" y1="42" x2="76" y2="42"/>

        font-size="14"     <line x1="52" y1="50" x2="76" y2="50"/>

        font-weight="bold"     <line x1="52" y1="58" x2="76" y2="58"/>

        text-anchor="middle"     <line x1="58" y1="38" x2="58" y2="62"/>

        fill="#00d4ff">AI</text>    <line x1="64" y1="38" x2="64" y2="62"/>

      <line x1="70" y1="38" x2="70" y2="62"/>

  <!-- Corner Accents -->  </g>

  <circle cx="16" cy="16" r="2.5" fill="#667eea" opacity="0.6"/>  

  <circle cx="112" cy="16" r="2.5" fill="#764ba2" opacity="0.6"/>  <!-- Circuit Nodes -->

  <circle cx="16" cy="112" r="2.5" fill="#764ba2" opacity="0.6"/>  <circle cx="58" cy="42" r="2.5" fill="#00d4ff"/>

  <circle cx="112" cy="112" r="2.5" fill="#f093fb" opacity="0.6"/>  <circle cx="64" cy="50" r="2.5" fill="#00ffff"/>

</svg>  <circle cx="70" cy="58" r="2.5" fill="#00d4ff"/>

  
  <!-- AI Brain/Neural Network -->
  <g stroke="#00d4ff" stroke-width="2.5" fill="none">
    <path d="M 56,48 Q 54,45 56,43 Q 58,41 60,43"/>
    <path d="M 68,48 Q 70,45 68,43 Q 66,41 64,43"/>
  </g>
  <circle cx="57" cy="45" r="2" fill="#00ffff"/>
  <circle cx="67" cy="45" r="2" fill="#00ffff"/>
  <circle cx="64" cy="52" r="2" fill="#00d4ff"/>
  
  <!-- Shield Security Symbol -->
  <path d="M 64,82 L 52,90 Q 52,102 64,110 Q 76,102 76,90 Z" 
        fill="url(#mainGrad)" stroke="#00d4ff" stroke-width="2.5"/>
  
  <!-- Lock on Shield -->
  <g transform="translate(64, 96)">
    <rect x="-4" y="2" width="8" height="7" rx="1.5" fill="#00d4ff"/>
    <path d="M -3,2 Q -3,-1 0,-1 Q 3,-1 3,2" stroke="#00d4ff" stroke-width="2" fill="none"/>
  </g>
  
  <!-- Code Symbols -->
  <g fill="#00d4ff" font-family="monospace" font-size="12" font-weight="bold">
    <text x="12" y="68" fill="#667eea">{ }</text>
    <text x="104" y="68" fill="#764ba2">&lt;/&gt;</text>
    <text x="58" y="18" fill="#f093fb">0x</text>
  </g>
  
  <!-- Binary Corners -->
  <g fill="#667eea" font-family="monospace" font-size="9" opacity="0.6">
    <text x="8" y="14">101</text>
    <text x="104" y="14">010</text>
    <text x="8" y="120">110</text>
    <text x="104" y="120">001</text>
  </g>
  
  <!-- Corner Accents -->
  <circle cx="12" cy="12" r="2" fill="#00d4ff" opacity="0.6"/>
  <circle cx="116" cy="12" r="2" fill="#00d4ff" opacity="0.6"/>
  <circle cx="12" cy="116" r="2" fill="#00d4ff" opacity="0.6"/>
  <circle cx="116" cy="116" r="2" fill="#00d4ff" opacity="0.6"/>
</svg>
